PathFileType	4	(X/Y/Z)	41_2_17_p1_0-413.trc
DataRate	CameraRate	NumFrames	NumMarkers	Units	OrigDataRate	OrigDataStartFrame	OrigNumFrames
60.0	60.0	7	27	m	60.0	155	414
Frame#	Time	RHip			RKnee			RAnkle			RBigToe			RSmallToe			RHeel			LHip			LKnee			LAnkle			LBigToe			LSmallToe			LHeel			Neck			Head			Nose			RShoulder			RElbow			RWrist			RThumb			RIndex			RPinky			LShoulder			LElbow			LWrist			LThumb			LIndex			LPinky			
		X1	Y1	Z1	X2	Y2	Z2	X3	Y3	Z3	X4	Y4	Z4	X5	Y5	Z5	X6	Y6	Z6	X7	Y7	Z7	X8	Y8	Z8	X9	Y9	Z9	X10	Y10	Z10	X11	Y11	Z11	X12	Y12	Z12	X13	Y13	Z13	X14	Y14	Z14	X15	Y15	Z15	X16	Y16	Z16	X17	Y17	Z17	X18	Y18	Z18	X19	Y19	Z19	X20	Y20	Z20	X21	Y21	Z21	X22	Y22	Z22	X23	Y23	Z23	X24	Y24	Z24	X25	Y25	Z25	X26	Y26	Z26	X27	Y27	Z27	
155	2.5833333333333335	0.2899166752453349	0.4495270582241284	-0.14113721283145145	0.31186133418917034	0.5382786670033524	0.30943018995872495	0.33848310097857165	0.6981047016909089	0.7455880822565827	0.3447605175306698	0.5188113340102966	0.7494439067106657	0.39551809970011714	0.5613342609578944	0.7602219586903827	0.3328857875524134	0.771824204048309	0.8236459418436087	0.11203426580194444	0.4519214128774572	-0.1345513860036357	0.1125227562802795	0.5747697998495033	0.31448723115435395	0.10761324031717337	0.7115964347678615	0.7318309449438135	0.14816275528268388	0.5668472096930274	0.748799294968918	0.08678031962693249	0.5795075604359053	0.7565920171088227	0.11907077860137383	0.8196897934069489	0.8114258980980186	0.18423131553849253	0.44023197316387686	-0.7189363549496421	0.16595349986618563	0.4800492632269941	-0.9477299559374749	0.2081500204670793	0.38611012903718034	-0.8531506959184939	0.3225456141790336	0.4204995470272341	-0.6282750198595244	0.4200439620144745	0.21026429841038385	-0.5650080701289444	0.4038396744085515	0.20352596611497198	-0.7700630330184742	0.37073670878795295	0.30432038082082785	-0.8619351802883582	0.4030894244847466	0.24862987801633246	-0.8744330208747249	0.43008789937192854	0.24683630253709235	-0.8634528355412144	0.04392282065693198	0.45603278274946546	-0.5903768885262434	0.0016759385693188781	0.47875585430428413	-0.330384869644758	0.019129547418045772	0.3615649877118771	-0.09843329469274842	0.07743475762549155	0.30794429106266363	-0.013604567044936214	0.055008079697882885	0.2608096151028626	-0.0006370949305490032	-0.0009390222558846987	0.3281696447887979	0.008533270368664797
156	2.6	0.3010500284668185	0.46065725730730733	-0.1474018679194037	0.31911361338116273	0.5368916186173412	0.3084257142014188	0.342021709547785	0.6811507900333359	0.7368367781279866	0.3432991598030535	0.5179187125031363	0.7444850825739738	0.39509859570348815	0.5614080341054194	0.7604780059011056	0.3327070709919715	0.7713233771634947	0.8232522533860827	0.1125437593639782	0.45176975140142905	-0.1383602876853485	0.11723704329286712	0.5769259075636697	0.3064729728538464	0.10295083545268613	0.728648843111518	0.7404220353566591	0.1475196010236477	0.5660827888837133	0.7482548148313549	0.09472547409337395	0.5795807863715475	0.7560360796028541	0.11923484071580043	0.8196048511442763	0.8110772882045382	0.18423422282234642	0.44029213770252257	-0.718901455946998	0.1661859962570788	0.48053373023082396	-0.9475981753248187	0.20787699223430395	0.3851277899561676	-0.8565738421640156	0.3183282658170893	0.40979464632336754	-0.6249715391920151	0.4194627435284159	0.20011928297436307	-0.5815026225761866	0.40251259196645	0.2045185771527331	-0.7890073911926333	0.37228000851962406	0.2946790475281412	-0.8777105779960769	0.3993466197860256	0.2399819152323594	-0.9072238074618085	0.404691505393459	0.20698292366146348	-0.8897379280983458	0.04406517760204283	0.4561777810538039	-0.590520383126233	0.0001946783726634982	0.5035551476986891	-0.3264922327009584	0.013437894612104774	0.38474106263891217	-0.0922352811475011	0.07208924243424528	0.32225125780014147	-0.005471945415928788	0.028873549091528974	0.2948144231680665	0.012671935517121482	-0.010177640715401195	0.33948820921185713	0.011772823880485003
157	2.6166666666666667	0.2967628982546681	0.447088450479138	-0.15763976077203484	0.32341439789878723	0.5504055697508985	0.3046927687895566	0.3421068137508969	0.6811126669115263	0.7367678792804201	0.34668364987552713	0.501486362602027	0.7354562116875356	0.3952260820035281	0.5605566573462317	0.759828863237777	0.3328672348344762	0.7714221945207697	0.8233064406709751	0.10781679097937474	0.4644823894684392	-0.14736517482600558	0.11240536201630852	0.5742956659400462	0.29264363979481384	0.10286815607634843	0.7284289326236856	0.7403015226385092	0.1463937189533944	0.5670995382498701	0.7527756007212971	0.08655305094030563	0.5657801930738073	0.7452998703688706	0.1155973712449828	0.8052445787794552	0.8038622365681682	0.1837032191694742	0.4395359869977847	-0.7292875708026915	0.16568159671970245	0.4796571906119798	-0.9513200212293208	0.20417482732030012	0.3840704601959478	-0.856613781502997	0.32238339211540207	0.4117486387217832	-0.6251664159249649	0.4164104858315285	0.1744728811089988	-0.6345111457133744	0.4025345024004197	0.19263968546808227	-0.8270969240949324	0.38337837071526404	0.2812980770073996	-0.9357503278811147	0.4012130266595452	0.2384112107522145	-0.9418572916868942	0.40738622171765776	0.199183092917361	-0.9177332188763038	0.04404640777729029	0.4560504798074103	-0.5906950998500965	0.00031651883596297496	0.5037780408744433	-0.3265791766014278	0.0013296708987989988	0.38452250461737275	-0.09525007322625188	0.046628312872325904	0.38254885337203864	0.013072239615045335	0.006960203948700208	0.34057726702456576	0.028568415453460207	-0.01864597213405146	0.3639072574566029	0.022291353336337884
158	2.6333333333333333	0.2928916409745468	0.43501304133810065	-0.16008319140507596	0.32350936538109265	0.5505024825314582	0.30487101252780996	0.3422051794791599	0.6807808477031537	0.7366713723002069	0.34023432024330713	0.5172102441442123	0.7488482360054073	0.3951178951664558	0.5611545314622208	0.7603866372303131	0.32736790747055017	0.7568795278800906	0.816004552443442	0.10334066277439992	0.4785977477892278	-0.14412164003116776	0.11301009417507188	0.5745770011229385	0.28798757569269134	0.10263686225346902	0.728590778719603	0.7404271844162774	0.14655246553059686	0.5673498347649758	0.7492074868742027	0.08174732930727008	0.5801988124276596	0.7534887334272976	0.11536906812611365	0.8056152561906588	0.8042712463674152	0.18736177342375865	0.451328667283451	-0.7296895367482266	0.16542615799931623	0.4807886664531012	-0.9547227186625238	0.20407889496777956	0.3838716794319987	-0.8601408010282194	0.3259044518469841	0.41255116875528886	-0.6289976346625135	0.41569564539661424	0.17372033346670446	-0.6430344346377055	0.4107200602198595	0.17150909916281806	-0.8529427632541362	0.3842219500401838	0.25016709455591685	-0.9624967788793248	0.39752421094566825	0.21731119766776383	-0.9685703423889565	0.4157491941596492	0.1507808002163852	-0.9435776931975123	0.044193641431690765	0.45607412605620784	-0.5942251536399422	3.226232394443858e-05	0.5035008411311955	-0.3370574119827974	-0.010261678668427756	0.435777284475435	-0.07873648544579327	0.033678772639308345	0.383530865379082	0.017326379696967157	-0.005402760397996007	0.34101841481075956	0.02821059495505438	-0.04150461199976037	0.42879041889864694	0.039150235957846564
159	2.65	0.29741873581505174	0.44876941299511175	-0.15356802206566803	0.323172089822522	0.5517039124589532	0.3009992521122838	0.3425754229286992	0.6794518207381645	0.7408400790143219	0.33749099322274173	0.5035064563798346	0.7431430880019144	0.39401421390723856	0.5587822927995334	0.7639825940034187	0.3266039405697827	0.7558903670841554	0.8150631638018369	0.10400414609815828	0.46502540122565994	-0.14287838881315446	0.10810588346713103	0.5726054051919792	0.29184042469456434	0.09892782859331019	0.7139346695021167	0.7335056394736124	0.14651921926011466	0.5675910424479844	0.7496133553426333	0.08219170718536262	0.5786908990091453	0.757044012470223	0.11482603352449877	0.8047093892971329	0.8041337603056694	0.1802116925220415	0.4522631239124161	-0.7290931986865962	0.16896366822604045	0.4920431124158424	-0.9589244344591803	0.20426654957855703	0.38469441329908155	-0.8632034812998424	0.3222571756285719	0.4118784032580824	-0.6282421805431834	0.4154393574933265	0.15827182189697003	-0.6621205477071672	0.4134708237441747	0.14923159618943377	-0.8722961073170692	0.37371653874284533	0.23163912436594583	-1.005951639739843	0.39328775321187737	0.21075694514749765	-1.0049639723737585	0.4361738598952788	0.1423108800324765	-0.9786159227981247	0.047055484579839116	0.46780063979938463	-0.5937931276322637	0.003487797851401535	0.4904814262402943	-0.34381953526093806	-0.024046162391864464	0.4609347845442217	-0.07605971537188015	0.024228053807993873	0.3957325517717376	0.021317472802146423	-0.008266850909899759	0.3652056575810774	0.029585892543411284	-0.04222551252938461	0.4292884375316812	0.03946730689572113
160	2.6666666666666665	0.30060454242558404	0.4595383914379216	-0.15508066039420687	0.3221171713732899	0.5501747262224898	0.29624728430851915	0.3421830745457987	0.680896115610188	0.736535039466474	0.3381936590289992	0.5039786382561435	0.7430467300354774	0.39581625335589576	0.5619688583279869	0.7662027989682708	0.33184730269864415	0.7702909423695389	0.8219704788590491	0.09908179887781214	0.4767824800094481	-0.14418804990253825	0.1109106045434768	0.5732215908729755	0.28358575761215604	0.09933415287851502	0.7155112470240016	0.7389523409567351	0.14870184943630405	0.5704969024945371	0.7561447187368985	0.0925177335581056	0.5941099266932004	0.7698425320476654	0.11128186690260902	0.7916069710913586	0.8024506414116148	0.1797248090290743	0.4512209813441855	-0.7366035698641787	0.16865612376233252	0.4918606116010546	-0.9626311616528735	0.20422557782883646	0.3849755784719843	-0.8663776191432943	0.32639801469910784	0.41217526570436014	-0.6255547433622373	0.4158424104794524	0.14959090798754732	-0.6964304733389263	0.415561315684052	0.1253266983249289	-0.902134307782369	0.3702710535624106	0.21019188932495997	-1.0379889452528257	0.39220752066358666	0.1957937160338677	-1.0387566307056544	0.421888019638443	0.12372955631500296	-1.0215895967459685	0.047062244870672953	0.46738746167787226	-0.5940917685260483	-0.0011169905621158595	0.5033642735472934	-0.3416765309669312	-0.031816760716357265	0.46251733149537033	-0.08319944003208246	0.01833330679207193	0.4191489095560112	0.027676811873616817	-0.025902895681051474	0.41604603428687	0.04492903826520511	-0.047357032532241855	0.44155682541381885	0.04022608705954169
161	2.683333333333333	0.3009533763577396	0.45965905166147797	-0.15871492741919183	0.3214876706600853	0.5497157336287719	0.2833574710943117	0.3430189867964635	0.6819262742647588	0.7280109779821035	0.33898860321147684	0.5042421012262318	0.7427726829009446	0.3964011436084913	0.5621137102705396	0.7657559958358605	0.3327661338982489	0.7708382515265175	0.812166283045356	0.0995276253259707	0.476895957670694	-0.14795115976186363	0.11188680363264615	0.5723862935293383	0.2825707559058108	0.0993742186223118	0.7148196406950663	0.7383817585985011	0.14939730727895006	0.5704490942740861	0.7559128253317109	0.08876720014097148	0.5809444946529151	0.7587071796039948	0.11122302527467029	0.7910951902163736	0.8021172794743201	0.18004094203723386	0.45132063516183235	-0.7370730051463351	0.16535632024573343	0.48028351544613795	-0.9653996326734897	0.20372580157171927	0.3838717473776361	-0.8702285513843583	0.32624880245026794	0.4119799431783597	-0.6324152117388752	0.4130616616946146	0.1304348788518821	-0.7207067532461701	0.41267986699118686	0.10738282248881585	-0.9264489932425223	0.36633807530820595	0.12611025612178928	-1.0461977855217328	0.39165269981469164	0.09748252559497314	-1.0513389910123823	0.4339413174322268	0.04931170863840444	-1.0325762949108102	0.04397647114976527	0.4545238636567013	-0.6018535578342287	-0.0019079773937497047	0.5047447002587191	-0.3418823397877576	-0.038158959297949886	0.4746554466563241	-0.09168346880904066	0.00039886022194928747	0.45596918192705305	0.027359591284818182	-0.0338394000360007	0.4414591531575718	0.04671838118910439	-0.047281879682453225	0.46760208647858637	0.032972023597680596
